
	<svg xmlns="http://www.w3.org/2000/svg" xmlns:xlink="http://www.w3.org/1999/xlink" version="1.1" width="128" height="128" viewBox="0 0 100 100">


		<defs>
			<g id="background">
<path fill="url(#background-gradient)" stroke="none" d=" M 90.75 23.05 Q 89.5 23.05 88.85 24.15 88.15 25.25 88.85 26.35 97.25 40.2 95.15 56.15 93.05 71.65 81.75 82.6 70.35 93.7 54.9 95.25 32.95 97.55 17.6 81.85 2.2 66.2 4.85 44.2 6.6 30.2 16.15 19.7 25.65 9.1 39.25 5.8 50.55 3 61.7 5.95 62.85 6.3 63.7 5.65 64.6 5 64.6 3.85 64.6 2.25 62.95 1.7 52.55 -1.1 41.6 0.65 25.55 3.3 14.4 14.85 3.1 26.25 0.65 42.4 -2.95 66.9 14 84.5 30.85 102.1 55.2 99.7 72.6 97.9 85.2 85.4 97.95 72.8 99.7 55.35 101.45 38.55 92.75 24.05 92.05 23.05 90.75 23.05 Z"/>
</g><mask id="mask">
<path fill="#FFFFFF" stroke="none" d=" M 82.2 82.15 Q 95.5 68.85 95.5 49.95 95.5 31.1 82.2 17.8 68.85 4.5 50 4.5 31.15 4.5 17.8 17.8 4.5 31.1 4.5 49.95 4.5 68.85 17.8 82.15 31.15 95.45 50 95.45 68.85 95.45 82.2 82.15 Z"/>
</mask>
			
	<linearGradient id="background-gradient" x1="0" y1="0" y2="1" x2="0" >
		<stop stop-color="#eed033" offset="0%"/>
		<stop stop-color="#eeb733" offset="100%"/>
	</linearGradient>

			
			
			<g transform="scale(3.4482758620689653) translate(-0.5 -0.5)" id="picture"><path d="M16.5 14c-.2 0-.5-.2-.5-.4l-1-8.4-1 8.4c0 .3-.3.5-.6.4-.3 0-.5-.3-.4-.6L14.5.9c0-.3.2-.4.5-.4s.5.2.5.4L17 13.4c0 .3-.2.6-.5.6zM15 29.5c-.3 0-.5-.2-.5-.4L13 16.6c0-.3.2-.5.4-.6.3 0 .5.2.6.4l1 8.4 1-8.4c0-.3.3-.5.6-.4.3 0 .5.3.4.6l-1.5 12.5c0 .2-.2.4-.5.4z M16.5 17c-.2 0-.5-.2-.5-.4 0-.3.2-.5.4-.6l8.4-1-8.4-1c-.3 0-.5-.3-.4-.6s.3-.5.6-.4l12.5 1.5c.3 0 .4.2.4.5s-.2.5-.4.5L16.5 17zm-3 0L.9 15.5c-.3 0-.4-.2-.4-.5s.2-.5.4-.5L13.4 13c.3 0 .5.2.6.4 0 .3-.2.5-.4.6l-8.4 1 8.4 1c.3 0 .5.3.4.6 0 .2-.3.4-.5.4z M13.5 14c-.1 0-.3 0-.4-.1l-6-6c-.1-.2-.1-.6 0-.8s.5-.2.7 0l6 6c.2.2.2.5 0 .7 0 .2-.2.2-.3.2zm3.1 0c-.1 0-.3 0-.3-.1-.2-.2-.2-.5 0-.7l5.9-6c.2-.2.5-.2.7 0 .2.2.2.5 0 .7l-5.9 6c-.1 0-.2.1-.4.1zm5.9 9c-.1 0-.3 0-.4-.1l-6-6c-.2-.2-.2-.5 0-.7s.5-.2.7 0l6 6c.2.2.2.5 0 .7 0 .1-.2.1-.3.1zm-15-.5c-.1 0-.3 0-.4-.1-.2-.2-.2-.5 0-.7l5.5-5.5c.2-.2.5-.2.7 0s.2.5 0 .7l-5.5 5.5c0 .1-.2.1-.3.1z M15 17.5c-1.4 0-2.5-1.1-2.5-2.5s1.1-2.5 2.5-2.5 2.5 1.1 2.5 2.5-1.1 2.5-2.5 2.5zm0-4c-.8 0-1.5.7-1.5 1.5s.7 1.5 1.5 1.5 1.5-.7 1.5-1.5-.7-1.5-1.5-1.5z M15 26.5C8.7 26.5 3.5 21.3 3.5 15S8.7 3.5 15 3.5 26.5 8.7 26.5 15 21.3 26.5 15 26.5zm0-22C9.2 4.5 4.5 9.2 4.5 15S9.2 25.5 15 25.5 25.5 20.8 25.5 15 20.8 4.5 15 4.5z"/></g>
			
	<linearGradient id="picture-gradient" x1="0" y1="0" y2="1" x2="0" >
		<stop stop-color="#fdaf02" offset="0%"/>
		<stop stop-color="#f03535" offset="100%"/>
	</linearGradient>

		</defs>

		

			<use xlink:href="#background" fill="url(#background-gradient)" />

		

			<g mask="url(#mask)">
				<g transform="
				        translate(
                                50 50
)
                            translate(0 0)  scale(0.5)  
                            translate(
                                -50 -50
)">
						<use xlink:href="#picture" fill="url(#picture-gradient)"  />
				</g>
			</g>

		



	</svg>
